<?xml version="1.0" encoding="UTF-8" standalone="no"?>
<svg
   xmlns:dc="http://purl.org/dc/elements/1.1/"
   xmlns:cc="http://creativecommons.org/ns#"
   xmlns:rdf="http://www.w3.org/1999/02/22-rdf-syntax-ns#"
   xmlns:svg="http://www.w3.org/2000/svg"
   xmlns="http://www.w3.org/2000/svg"
   xmlns:sodipodi="http://sodipodi.sourceforge.net/DTD/sodipodi-0.dtd"
   xmlns:inkscape="http://www.inkscape.org/namespaces/inkscape"
   version="1.1"
   id="svg2"
   viewBox="0 0 32 32"
   height="32"
   width="32"
   inkscape:version="0.91 r"
   sodipodi:docname="deleteRow.svg">
  <sodipodi:namedview
     pagecolor="#ffffff"
     bordercolor="#666666"
     borderopacity="1"
     objecttolerance="10"
     gridtolerance="10"
     guidetolerance="10"
     inkscape:pageopacity="0"
     inkscape:pageshadow="2"
     inkscape:window-width="1918"
     inkscape:window-height="1023"
     id="namedview17"
     showgrid="false"
     inkscape:zoom="7.375"
     inkscape:cx="2.1694915"
     inkscape:cy="15.728814"
     inkscape:window-x="0"
     inkscape:window-y="0"
     inkscape:window-maximized="0"
     inkscape:current-layer="svg2" />
  <defs
     id="defs4" />
  <metadata
     id="metadata7">
    <rdf:RDF>
      <cc:Work
         rdf:about="">
        <dc:format>image/svg+xml</dc:format>
        <dc:type
           rdf:resource="http://purl.org/dc/dcmitype/StillImage" />
        <dc:title />
      </cc:Work>
    </rdf:RDF>
  </metadata>
  <rect
     rx="4"
     ry="4"
     y="2"
     x="2"
     height="28"
     width="28"
     id="rect4251"
     style="fill:#505050;fill-opacity:1;stroke:none;stroke-width:1;stroke-miterlimit:4;stroke-dasharray:none;stroke-opacity:1" />
  <g
     transform="translate(0,-53.039373)"
     id="layer1" />
  <rect
     transform="matrix(0,1,-1,0,0,0)"
     style="fill:#ab1e1e;fill-opacity:1;stroke:none;stroke-width:1;stroke-miterlimit:4;stroke-dasharray:none;stroke-opacity:1"
     id="rect4211"
     width="8"
     height="8"
     x="12"
     y="-11" />
  <path
     id="rect4213"
     d="m 21,21 0,8 5,0 c 1.656854,0 3,-1.343146 3,-3 l 0,-5 z"
     style="fill:#d0d0d0;fill-opacity:1;stroke:none;stroke-width:1;stroke-miterlimit:4;stroke-dasharray:none;stroke-opacity:1"
     inkscape:connector-curvature="0" />
  <rect
     transform="matrix(0,1,-1,0,0,0)"
     style="fill:#d0d0d0;fill-opacity:1;stroke:none;stroke-width:1;stroke-miterlimit:4;stroke-dasharray:none;stroke-opacity:1"
     id="rect4215"
     width="8"
     height="8"
     x="3"
     y="-20" />
  <rect
     y="12"
     x="12"
     height="8"
     width="8"
     id="rect4217"
     style="fill:#ab1e1e;fill-opacity:1;stroke:none;stroke-width:1;stroke-miterlimit:4;stroke-dasharray:none;stroke-opacity:1" />
  <rect
     transform="matrix(0,1,-1,0,0,0)"
     style="fill:#d0d0d0;fill-opacity:1;stroke:none;stroke-width:1;stroke-miterlimit:4;stroke-dasharray:none;stroke-opacity:1"
     id="rect4219"
     width="8"
     height="8"
     x="21"
     y="-20" />
  <path
     id="path4249"
     d="M 18.12132,12.464466 19.535534,13.87868 17.414214,16 19.535534,18.12132 18.12132,19.535534 16,17.414214 13.87868,19.535534 12.464466,18.12132 14.585786,16 12.464466,13.87868 13.87868,12.464466 16,14.585786 Z"
     style="fill:#e8e8e8;fill-opacity:1;fill-rule:evenodd;stroke:none;stroke-width:1px;stroke-linecap:butt;stroke-linejoin:miter;stroke-opacity:1"
     inkscape:connector-curvature="0" />
  <path
     style="fill:#d0d0d0;fill-opacity:1;stroke:none;stroke-width:1;stroke-miterlimit:4;stroke-dasharray:none;stroke-opacity:1"
     d="m 21,11 0,-8 5,0 c 1.656854,0 3,1.343146 3,3 l 0,5 z"
     id="path4281"
     inkscape:connector-curvature="0" />
  <path
     style="fill:#d0d0d0;fill-opacity:1;stroke:none;stroke-width:1;stroke-miterlimit:4;stroke-dasharray:none;stroke-opacity:1"
     d="m 11,21 0,8 -5,0 C 4.343146,29 3,27.656854 3,26 l 0,-5 z"
     id="path4283"
     inkscape:connector-curvature="0" />
  <path
     id="path4285"
     d="M 11,11 11,3 6,3 C 4.343146,3 3,4.343146 3,6 l 0,5 z"
     style="fill:#d0d0d0;fill-opacity:1;stroke:none;stroke-width:1;stroke-miterlimit:4;stroke-dasharray:none;stroke-opacity:1"
     inkscape:connector-curvature="0" />
  <rect
     transform="matrix(0,1,-1,0,0,0)"
     y="-29"
     x="12"
     height="8"
     width="8"
     id="rect4289"
     style="fill:#ab1e1e;fill-opacity:1;stroke:none;stroke-width:1;stroke-miterlimit:4;stroke-dasharray:none;stroke-opacity:1" />
</svg>
