<?xml version="1.0" encoding="UTF-8" standalone="no"?>
<svg
   xmlns:dc="http://purl.org/dc/elements/1.1/"
   xmlns:cc="http://creativecommons.org/ns#"
   xmlns:rdf="http://www.w3.org/1999/02/22-rdf-syntax-ns#"
   xmlns:svg="http://www.w3.org/2000/svg"
   xmlns="http://www.w3.org/2000/svg"
   width="32"
   height="32"
   viewBox="0 0 32 32"
   id="svg2"
   version="1.1">
  <defs
     id="defs4" />
  <metadata
     id="metadata7">
    <rdf:RDF>
      <cc:Work
         rdf:about="">
        <dc:format>image/svg+xml</dc:format>
        <dc:type
           rdf:resource="http://purl.org/dc/dcmitype/StillImage" />
        <dc:title></dc:title>
      </cc:Work>
    </rdf:RDF>
  </metadata>
  <rect
     style="fill:#505050;fill-opacity:1;stroke:none;stroke-width:1;stroke-miterlimit:4;stroke-dasharray:none;stroke-opacity:1"
     id="rect4251"
     width="28"
     height="28"
     x="2"
     y="2"
     ry="4"
     rx="4" />
  <g
     id="layer1"
     transform="translate(0,-53.039373)" />
  <rect
     transform="matrix(0,1,-1,0,0,0)"
     y="-11"
     x="12"
     height="8"
     width="8"
     id="rect4211"
     style="fill:#1b9a3e;fill-opacity:1;stroke:none;stroke-width:1;stroke-miterlimit:4;stroke-dasharray:none;stroke-opacity:1" />
  <path
     style="fill:#d0d0d0;fill-opacity:1;stroke:none;stroke-width:1;stroke-miterlimit:4;stroke-dasharray:none;stroke-opacity:1"
     d="m 21,21 0,8 5,0 c 1.656854,0 3,-1.343146 3,-3 l 0,-5 z"
     id="rect4213" />
  <rect
     transform="matrix(0,1,-1,0,0,0)"
     y="-20"
     x="3"
     height="8"
     width="8"
     id="rect4215"
     style="fill:#d0d0d0;fill-opacity:1;stroke:none;stroke-width:1;stroke-miterlimit:4;stroke-dasharray:none;stroke-opacity:1" />
  <rect
     style="fill:#1b9a3e;fill-opacity:1;stroke:none;stroke-width:1;stroke-miterlimit:4;stroke-dasharray:none;stroke-opacity:1"
     id="rect4217"
     width="8"
     height="8"
     x="12"
     y="12" />
  <rect
     transform="matrix(0,1,-1,0,0,0)"
     y="-20"
     x="21"
     height="8"
     width="8"
     id="rect4219"
     style="fill:#d0d0d0;fill-opacity:1;stroke:none;stroke-width:1;stroke-miterlimit:4;stroke-dasharray:none;stroke-opacity:1" />
  <path
     style="fill:#e8e8e8;fill-opacity:1;fill-rule:evenodd;stroke:none;stroke-width:1px;stroke-linecap:butt;stroke-linejoin:miter;stroke-opacity:1"
     d="m 15,12 2,0 0,3 3,0 0,2 -3,0 0,3 -2,0 0,-3 -3,0 0,-2 3,0 z"
     id="path4249" />
  <path
     id="path4281"
     d="m 21,11 0,-8 5,0 c 1.656854,0 3,1.343146 3,3 l 0,5 z"
     style="fill:#d0d0d0;fill-opacity:1;stroke:none;stroke-width:1;stroke-miterlimit:4;stroke-dasharray:none;stroke-opacity:1" />
  <path
     id="path4283"
     d="m 11,21 0,8 -5,0 C 4.343146,29 3,27.656854 3,26 l 0,-5 z"
     style="fill:#d0d0d0;fill-opacity:1;stroke:none;stroke-width:1;stroke-miterlimit:4;stroke-dasharray:none;stroke-opacity:1" />
  <path
     style="fill:#d0d0d0;fill-opacity:1;stroke:none;stroke-width:1;stroke-miterlimit:4;stroke-dasharray:none;stroke-opacity:1"
     d="M 11,11 11,3 6,3 C 4.343146,3 3,4.343146 3,6 l 0,5 z"
     id="path4285" />
  <rect
     transform="matrix(0,1,-1,0,0,0)"
     style="fill:#1b9a3e;fill-opacity:1;stroke:none;stroke-width:1;stroke-miterlimit:4;stroke-dasharray:none;stroke-opacity:1"
     id="rect4289"
     width="8"
     height="8"
     x="12"
     y="-29" />
</svg>
