<?xml version="1.0" encoding="UTF-8" standalone="no"?>
<svg
   xmlns:dc="http://purl.org/dc/elements/1.1/"
   xmlns:cc="http://creativecommons.org/ns#"
   xmlns:rdf="http://www.w3.org/1999/02/22-rdf-syntax-ns#"
   xmlns:svg="http://www.w3.org/2000/svg"
   xmlns="http://www.w3.org/2000/svg"
   xmlns:sodipodi="http://sodipodi.sourceforge.net/DTD/sodipodi-0.dtd"
   xmlns:inkscape="http://www.inkscape.org/namespaces/inkscape"
   version="1.1"
   id="svg2"
   viewBox="0 0 32 32"
   height="32"
   width="32"
   inkscape:version="0.91 r"
   sodipodi:docname="open.svg">
  <sodipodi:namedview
     pagecolor="#ffffff"
     bordercolor="#666666"
     borderopacity="1"
     objecttolerance="10"
     gridtolerance="10"
     guidetolerance="10"
     inkscape:pageopacity="0"
     inkscape:pageshadow="2"
     inkscape:window-width="1920"
     inkscape:window-height="1024"
     id="namedview16"
     showgrid="true"
     inkscape:object-paths="true"
     inkscape:snap-intersection-paths="true"
     inkscape:object-nodes="true"
     inkscape:zoom="22.627417"
     inkscape:cx="11.251731"
     inkscape:cy="15.750332"
     inkscape:window-x="0"
     inkscape:window-y="0"
     inkscape:window-maximized="1"
     inkscape:current-layer="svg2"
     inkscape:snap-smooth-nodes="true">
    <inkscape:grid
       type="xygrid"
       id="grid4144" />
  </sodipodi:namedview>
  <defs
     id="defs4" />
  <rect
     style="fill:#505050;fill-opacity:1;stroke:none;stroke-width:1;stroke-miterlimit:4;stroke-dasharray:none;stroke-opacity:1"
     id="rect4185"
     width="15"
     height="23"
     x="2"
     y="4"
     ry="3.9999998"
     rx="4" />
  <path
     sodipodi:nodetypes="ccccccccc"
     inkscape:connector-curvature="0"
     id="path4187"
     d="M 6,5 C 4.343146,5 3,6.343146 3,8 l 0,15 c 0,1.656854 1.343146,3 3,3 l 7,0 c 1.656854,0 3,-1.343146 3,-3 L 16,8 C 16,6.343146 14.656854,5 13,5 Z"
     style="fill:#cf9c50;fill-opacity:1;stroke:none;stroke-width:1;stroke-miterlimit:4;stroke-dasharray:none;stroke-opacity:1" />
  <path
     style="fill:#505050;fill-opacity:1;stroke:none;stroke-width:1;stroke-miterlimit:4;stroke-dasharray:none;stroke-opacity:1"
     d="m 6,9 8,0 c 1.494426,0 2,-1 2,-2 l 10,0 c 2.216,0 4,1.7839999 4,4 l 0,15 c 0,2.216 -1.784,4 -4,4 L 6,30 C 3.784,30 2,28.216 2,26 L 2,13 C 2,10.784 3.784,9 6,9 Z"
     id="rect4251"
     inkscape:connector-curvature="0"
     sodipodi:nodetypes="sccssssssss" />
  <path
     style="fill:#efc88c;fill-opacity:1;stroke:none;stroke-width:1;stroke-miterlimit:4;stroke-dasharray:none;stroke-opacity:1"
     d="m 6,10 c -1.656854,0 -3,1.343146 -3,3 l 0,13 c 0,1.656854 1.343146,3 3,3 l 20,0 c 1.656854,0 3,-1.343146 3,-3 L 29,11 C 29,9.343146 27.656854,8 26,8 l -9,0 c 0,1 -1,2 -2,2 z"
     id="rect4213"
     inkscape:connector-curvature="0"
     sodipodi:nodetypes="ccccccccccc" />
  <metadata
     id="metadata4181">
    <rdf:RDF>
      <cc:Work
         rdf:about="">
        <dc:title></dc:title>
        <dc:format>image/svg+xml</dc:format>
        <dc:type
           rdf:resource="http://purl.org/dc/dcmitype/StillImage" />
      </cc:Work>
    </rdf:RDF>
  </metadata>
</svg>
